<svg xmlns="http://www.w3.org/2000/svg" width="250.936" height="313.154" viewBox="0 0 250.936 313.154">
  <g id="umbrella" transform="translate(-834.956 -1288)">
    <g id="Tracé_142" data-name="Tracé 142" transform="translate(2296.66 315.131)" fill="#ffd364" stroke-linecap="round" stroke-linejoin="round">
      <path d="M -1343.805786132813 1285.023071289063 C -1349.920532226563 1285.023071289063 -1354.895141601563 1280.048217773438 -1354.895141601563 1273.933227539063 L -1354.895141601563 1264.7958984375 C -1354.895141601563 1262.594970703125 -1353.1044921875 1260.804321289063 -1350.903442382813 1260.804321289063 C -1348.702392578125 1260.804321289063 -1346.91162109375 1262.594970703125 -1346.91162109375 1264.7958984375 L -1346.91162109375 1273.933227539063 C -1346.91162109375 1275.64599609375 -1345.518310546875 1277.039428710938 -1343.805786132813 1277.039428710938 C -1342.092529296875 1277.039428710938 -1340.698608398438 1275.64599609375 -1340.698608398438 1273.933227539063 L -1340.698608398438 1240.86083984375 C -1340.698608398438 1238.659790039063 -1338.907958984375 1236.869018554688 -1336.70703125 1236.869018554688 C -1334.506103515625 1236.869018554688 -1332.715576171875 1238.659790039063 -1332.715576171875 1240.86083984375 L -1332.715576171875 1273.933227539063 C -1332.715576171875 1280.048217773438 -1337.690673828125 1285.023071289063 -1343.805786132813 1285.023071289063 Z" stroke="none"/>
      <path d="M -1343.805786132813 1284.023071289063 C -1338.241943359375 1284.023071289063 -1333.715576171875 1279.49658203125 -1333.715576171875 1273.933227539063 L -1333.715576171875 1240.86083984375 C -1333.715576171875 1239.208129882813 -1335.05517578125 1237.869018554688 -1336.70703125 1237.869018554688 C -1338.359741210938 1237.869018554688 -1339.698608398438 1239.208129882813 -1339.698608398438 1240.86083984375 L -1339.698608398438 1273.933227539063 C -1339.698608398438 1276.197265625 -1341.541015625 1278.039428710938 -1343.805786132813 1278.039428710938 C -1346.069946289063 1278.039428710938 -1347.91162109375 1276.197265625 -1347.91162109375 1273.933227539063 L -1347.91162109375 1264.7958984375 C -1347.91162109375 1263.143432617188 -1349.251342773438 1261.804321289063 -1350.903442382813 1261.804321289063 C -1352.555786132813 1261.804321289063 -1353.895141601563 1263.143432617188 -1353.895141601563 1264.7958984375 L -1353.895141601563 1273.933227539063 C -1353.895141601563 1279.49658203125 -1349.369262695313 1284.023071289063 -1343.805786132813 1284.023071289063 M -1343.805786132813 1286.023071289063 C -1350.471923828125 1286.023071289063 -1355.895141601563 1280.599609375 -1355.895141601563 1273.933227539063 L -1355.895141601563 1264.7958984375 C -1355.895141601563 1262.043579101563 -1353.655883789063 1259.804321289063 -1350.903442382813 1259.804321289063 C -1348.15087890625 1259.804321289063 -1345.91162109375 1262.043579101563 -1345.91162109375 1264.7958984375 L -1345.91162109375 1273.933227539063 C -1345.91162109375 1275.094604492188 -1344.966918945313 1276.039428710938 -1343.805786132813 1276.039428710938 C -1342.643920898438 1276.039428710938 -1341.698608398438 1275.094604492188 -1341.698608398438 1273.933227539063 L -1341.698608398438 1240.86083984375 C -1341.698608398438 1238.1083984375 -1339.459350585938 1235.869018554688 -1336.70703125 1235.869018554688 C -1333.954711914063 1235.869018554688 -1331.715576171875 1238.1083984375 -1331.715576171875 1240.86083984375 L -1331.715576171875 1273.933227539063 C -1331.715576171875 1280.599609375 -1337.139282226563 1286.023071289063 -1343.805786132813 1286.023071289063 Z" stroke="none" fill="#8a97ff"/>
    </g>
    <rect id="Rectangle_179" data-name="Rectangle 179" width="8" height="245" transform="translate(956 1310.5)" fill="#aec7ff" stroke="#8a97ff" stroke-linecap="round" stroke-linejoin="round" stroke-width="2"/>
    <rect id="Rectangle_191" data-name="Rectangle 191" width="8" height="129" transform="translate(956 1293.5)" fill="#8a97ff" stroke="#8a97ff" stroke-linecap="round" stroke-linejoin="round" stroke-width="2"/>
    <path id="Tracé_139" data-name="Tracé 139" d="M-301.164,519.2S-314.45,396.807-183.6,386.339c0,0-43.481,27.377-40.663,132.858,0,0-8.455-20.533-40.663-20.533S-301.164,519.2-301.164,519.2Z" transform="translate(1137.543 923.778)" fill="#fc7a5b" stroke="#8a97ff" stroke-linecap="round" stroke-linejoin="round" stroke-width="2"/>
    <path id="Tracé_140" data-name="Tracé 140" d="M-75.516,518.722s12.845-121.532-118-132c0,0,43.818,26.519,41,132,0,0,7.793-20,40-20S-75.516,518.722-75.516,518.722Z" transform="translate(1160.016 923.778)" fill="#fc7a5b" stroke="#8a97ff" stroke-linecap="round" stroke-linejoin="round" stroke-width="2"/>
    <path id="Tracé_141" data-name="Tracé 141" d="M-237.338,518.722s10.168-26,46-26,48,26,48,26,7.5-95.364-41-132h-13S-237.74,407.2-237.338,518.722Z" transform="translate(1150.838 923.778)" fill="#ffb0b0" stroke="#8a97ff" stroke-linecap="round" stroke-linejoin="round" stroke-width="2"/>
    <line id="Ligne_102" data-name="Ligne 102" y2="12.078" transform="translate(913.275 1440.559)" fill="#fff" stroke="#8a97ff" stroke-linecap="round" stroke-linejoin="round" stroke-width="2"/>
    <line id="Ligne_103" data-name="Ligne 103" y2="12.078" transform="translate(1007.74 1440.559)" fill="#fff" stroke="#8a97ff" stroke-linecap="round" stroke-linejoin="round" stroke-width="2"/>
    <path id="Rectangle_181" data-name="Rectangle 181" d="M5.245,0h.18a5.245,5.245,0,0,1,5.245,5.245V21.117a0,0,0,0,1,0,0H0a0,0,0,0,1,0,0V5.245A5.245,5.245,0,0,1,5.245,0Z" transform="translate(954.939 1289)" fill="#fffbee" stroke="#8a97ff" stroke-linecap="round" stroke-linejoin="round" stroke-width="2"/>
    <path id="Tracé_144" data-name="Tracé 144" d="M18083.994,8140.239l8.418,8.417" transform="translate(-17247.508 -6718.508)" fill="none" stroke="#8a97ff" stroke-width="2"/>
    <path id="Tracé_145" data-name="Tracé 145" d="M18083.992,8140.238l13.1,13.092" transform="translate(-17246.982 -6725.982)" fill="none" stroke="#8a97ff" stroke-width="2"/>
    <path id="Tracé_146" data-name="Tracé 146" d="M18083.992,8140.239l17.242,17.241" transform="translate(-17245.605 -6732.605)" fill="none" stroke="#8a97ff" stroke-width="2"/>
  </g>
</svg>
